<?xml version="1.0" encoding="UTF-8" standalone="no"?>
<svg
   xmlns:dc="http://purl.org/dc/elements/1.1/"
   xmlns:cc="http://creativecommons.org/ns#"
   xmlns:rdf="http://www.w3.org/1999/02/22-rdf-syntax-ns#"
   xmlns:svg="http://www.w3.org/2000/svg"
   xmlns="http://www.w3.org/2000/svg"
   id="svg33679"
   version="1.1"
   viewBox="0 0 95.249998 18.520834"
   height="70"
   width="360">
  <defs
     id="defs33673" />
  <metadata
     id="metadata33676">
    <rdf:RDF>
      <cc:Work
         rdf:about="">
        <dc:format>image/svg+xml</dc:format>
        <dc:type
           rdf:resource="http://purl.org/dc/dcmitype/StillImage" />
        <dc:title></dc:title>
      </cc:Work>
    </rdf:RDF>
  </metadata>
  <g
     transform="translate(0,-278.47915)"
     id="layer1">
    <g
       id="text27521"
       style="font-style:normal;font-weight:normal;font-size:3.40514088px;line-height:0%;font-family:sans-serif;letter-spacing:0px;word-spacing:0px;fill:#000000;fill-opacity:1;stroke:none;stroke-width:0.28376174px;stroke-linecap:butt;stroke-linejoin:miter;stroke-opacity:1"
       aria-label="WebThings Gateway">
      <path
         id="path34261"
         style="font-style:normal;font-variant:normal;font-weight:600;font-stretch:normal;font-family:'Zilla Slab';-inkscape-font-specification:'Zilla Slab Semi-Bold';stroke-width:0.28376174px"
         d="M 10.183494,280.00321 H 9.6195178 L 7.7360494,285.909 H 6.8634821 L 5.1715528,281.03539 H 5.1183475 L 3.4796235,285.909 H 2.5964152 L 0.595895,280.00321 H -4.6227872e-6 V 278.9923 H 2.6283383 v 1.01091 H 1.8621817 l 1.1917992,3.95847 h 0.053205 l 1.3726973,-3.95847 H 3.8733429 v -1.01091 h 2.6177019 v 1.01091 H 5.9270684 l 1.3726973,4.01168 h 0.053205 l 1.0853886,-4.01168 H 7.5870745 v -1.01091 h 2.5964195 z" />
      <path
         id="path34263"
         style="font-style:normal;font-variant:normal;font-weight:600;font-stretch:normal;font-family:'Zilla Slab';-inkscape-font-specification:'Zilla Slab Semi-Bold';stroke-width:0.28376174px"
         d="m 14.494289,284.45117 q -0.06385,0.62782 -0.617182,1.09603 -0.553335,0.46821 -1.521672,0.46821 -1.042824,0 -1.713212,-0.60654 -0.6703866,-0.61719 -0.6703866,-1.80898 0,-1.09603 0.6065406,-1.83027 0.617182,-0.73423 1.713211,-0.73423 0.989619,0 1.564237,0.5959 0.585259,0.58526 0.5959,1.48975 0,0.29795 -0.06385,0.63846 h -3.224242 q 0.09577,1.34078 1.276927,1.34078 0.553336,0 0.787439,-0.26603 0.244745,-0.26603 0.319232,-0.56398 z m -1.213082,-1.39398 q 0.04256,-0.42564 -0.20218,-0.79808 -0.234103,-0.38308 -0.79808,-0.38308 -0.510771,0 -0.776797,0.34052 -0.266027,0.34051 -0.329873,0.84064 z" />
      <path
         id="path34265"
         style="font-style:normal;font-variant:normal;font-weight:600;font-stretch:normal;font-family:'Zilla Slab';-inkscape-font-specification:'Zilla Slab Semi-Bold';stroke-width:0.28376174px"
         d="m 20.277873,283.40835 q 0,1.0109 -0.532053,1.80898 -0.532053,0.79808 -1.638724,0.79808 -1.127953,0 -1.585519,-0.85129 -0.02128,0.12769 -0.05321,0.37244 -0.03192,0.24474 -0.0532,0.37244 h -1.127953 q 0.06385,-0.35116 0.117052,-0.71295 0.05321,-0.37244 0.05321,-0.7236 v -5.01194 H 14.74452 v -0.87257 h 1.840904 v 3.49027 q 0.212821,-0.42564 0.595899,-0.73423 0.39372,-0.30859 1.053466,-0.30859 0.90449,0 1.468467,0.62782 0.574617,0.61718 0.574617,1.74514 z m -1.181158,0.0958 q 0,-0.75552 -0.340514,-1.14924 -0.340514,-0.40436 -0.872567,-0.40436 -0.606541,0 -0.947055,0.44693 -0.340514,0.44692 -0.351155,0.96833 v 0.34052 q 0,0.58525 0.340514,1.00026 0.351155,0.40436 0.915131,0.40436 0.5959,0 0.925773,-0.43629 0.329873,-0.43628 0.329873,-1.17051 z" />
      <path
         id="path34267"
         style="font-style:normal;font-variant:normal;font-weight:600;font-stretch:normal;font-family:'Zilla Slab';-inkscape-font-specification:'Zilla Slab Semi-Bold';stroke-width:0.28376174px"
         d="m 26.673154,281.24821 -1.021542,0.0851 -0.212821,-1.33013 h -1.351415 v 4.89489 h 1.159876 v 1.0109 h -3.458346 v -1.0109 h 1.117312 v -4.89489 h -1.362057 l -0.212821,1.33013 -1.010901,-0.0851 0.212821,-2.25591 h 5.927073 z" />
      <path
         id="path34269"
         style="font-style:normal;font-variant:normal;font-weight:600;font-stretch:normal;font-family:'Zilla Slab';-inkscape-font-specification:'Zilla Slab Semi-Bold';stroke-width:0.28376174px"
         d="m 32.873403,285.909 h -2.564496 v -0.87257 h 0.712951 v -1.87283 q 0,-0.68103 -0.255386,-0.95769 -0.255385,-0.28731 -0.691669,-0.28731 -0.521412,0 -0.830003,0.34051 -0.308591,0.34052 -0.329873,0.83 v 1.94732 h 0.70231 v 0.87257 h -2.553855 v -0.87257 h 0.712951 v -5.57592 h -0.712951 v -0.87257 h 1.851545 v 3.33066 q 0.489489,-0.88321 1.585519,-0.88321 0.691669,0 1.170517,0.415 0.489489,0.415 0.489489,1.29821 v 2.28783 h 0.712951 z" />
      <path
         id="path34271"
         style="font-style:normal;font-variant:normal;font-weight:600;font-stretch:normal;font-family:'Zilla Slab';-inkscape-font-specification:'Zilla Slab Semi-Bold';stroke-width:0.28376174px"
         d="m 33.982899,280.14154 v -1.25565 h 1.159876 v 1.25565 z m 1.90475,5.76746 h -2.553855 v -0.87257 h 0.712951 v -3.02206 h -0.755516 v -0.88321 h 1.883469 v 3.90527 h 0.712951 z" />
      <path
         id="path34273"
         style="font-style:normal;font-variant:normal;font-weight:600;font-stretch:normal;font-family:'Zilla Slab';-inkscape-font-specification:'Zilla Slab Semi-Bold';stroke-width:0.28376174px"
         d="m 42.218751,285.909 h -2.553855 v -0.87257 h 0.70231 v -1.87283 q 0,-0.68103 -0.244745,-0.95769 -0.244744,-0.28731 -0.681028,-0.28731 -0.542694,0 -0.861926,0.35115 -0.308591,0.35116 -0.319232,0.86193 v 1.90475 h 0.712951 V 285.909 H 36.40873 v -0.87257 h 0.712951 v -3.02206 h -0.744874 v -0.88321 h 1.883468 v 0.7768 q 0.50013,-0.87257 1.585519,-0.87257 0.681028,0 1.170517,0.415 0.489489,0.415 0.489489,1.29821 v 2.28783 h 0.712951 z" />
      <path
         id="path34275"
         style="font-style:normal;font-variant:normal;font-weight:600;font-stretch:normal;font-family:'Zilla Slab';-inkscape-font-specification:'Zilla Slab Semi-Bold';stroke-width:0.28376174px"
         d="m 48.145161,282.01437 h -0.691669 v 3.71373 q 0,1.13859 -0.638464,1.8409 -0.627823,0.70231 -1.883469,0.70231 -0.744874,0 -1.393979,-0.31923 -0.649105,-0.31923 -0.915132,-1.09603 l 0.883209,-0.47885 q 0.446924,0.97898 1.447184,0.97898 0.5959,0 0.978978,-0.42564 0.383079,-0.42564 0.383079,-1.21308 v -0.71295 q -0.202181,0.38307 -0.585259,0.65974 -0.372437,0.26603 -1.032183,0.26603 -0.840644,0 -1.457826,-0.58526 -0.606541,-0.5959 -0.606541,-1.72385 0,-1.02154 0.542695,-1.79834 0.553335,-0.78744 1.596159,-0.78744 1.085389,0 1.542955,0.84064 v -0.74487 h 1.830263 z m -1.830263,1.61744 v -0.38308 q 0,-0.5959 -0.340514,-0.94705 -0.340514,-0.35116 -0.851286,-0.35116 -0.595899,0 -0.915131,0.43628 -0.319232,0.42565 -0.319232,1.15988 0,0.75552 0.319232,1.11731 0.319232,0.35116 0.808721,0.35116 0.60654,0 0.947055,-0.42565 0.351155,-0.42564 0.351155,-0.95769 z" />
      <path
         id="path34277"
         style="font-style:normal;font-variant:normal;font-weight:600;font-stretch:normal;font-family:'Zilla Slab';-inkscape-font-specification:'Zilla Slab Semi-Bold';stroke-width:0.28376174px"
         d="m 52.779841,284.48309 q 0,0.74488 -0.617182,1.1386 -0.60654,0.39372 -1.553595,0.39372 -0.510771,0 -1.032184,-0.11705 -0.510771,-0.11706 -0.925772,-0.35116 l 0.170257,-1.23436 0.893849,0.0851 -0.01064,0.61718 q 0.20218,0.0851 0.425643,0.11705 0.234103,0.0319 0.415001,0.0319 0.436284,0 0.755516,-0.14897 0.329873,-0.15962 0.329873,-0.46821 0,-0.29795 -0.29795,-0.42564 -0.287309,-0.1277 -0.723592,-0.19154 -0.436284,-0.0745 -0.872568,-0.19154 -0.436283,-0.12769 -0.734233,-0.40436 -0.287309,-0.28731 -0.287309,-0.85129 0,-0.83 0.627823,-1.13859 0.638464,-0.30859 1.340774,-0.30859 0.925773,0 1.745135,0.43628 l 0.117052,1.18116 -0.89385,0.10641 -0.09577,-0.71295 q -0.415002,-0.15962 -0.840645,-0.15962 -0.329873,0 -0.563976,0.13834 -0.223462,0.12769 -0.223462,0.415 0,0.29795 0.287308,0.415 0.287309,0.11705 0.712952,0.19154 0.425642,0.0639 0.851285,0.19154 0.425642,0.11705 0.712951,0.40436 0.287309,0.27667 0.287309,0.84064 z" />
      <path
         id="path34279"
         style="font-weight:normal;font-size:10.64106464px;fill:#000000;stroke-width:0.28376174px"
         d="M 62.577435,283.03591 H 62.03474 v 2.87309 h -0.595899 l -0.09577,-0.9577 q -0.308591,0.45757 -0.883208,0.76616 -0.563977,0.29795 -1.330133,0.29795 -1.425903,0 -2.309111,-1.02154 -0.883209,-1.02155 -0.883209,-2.5113 0,-1.00026 0.425643,-1.80898 0.436283,-0.81936 1.191799,-1.29821 0.766157,-0.48949 1.755776,-0.48949 0.830003,0 1.447184,0.23411 0.627823,0.22346 1.021543,0.57461 l 0.191539,1.29821 -0.659746,0.0745 -0.212821,-0.97898 q -0.287309,-0.19153 -0.702311,-0.34051 -0.40436,-0.15962 -1.042824,-0.15962 -1.159876,0 -1.872827,0.79808 -0.712952,0.79808 -0.712952,2.06437 0,1.28757 0.681028,2.07501 0.681029,0.78744 1.819622,0.78744 0.947055,0 1.468467,-0.51077 0.521413,-0.52142 0.521413,-1.14924 v -0.61718 h -1.649366 v -0.69167 h 2.968858 z" />
      <path
         id="path34281"
         style="font-weight:normal;font-size:10.64106464px;fill:#000000;stroke-width:0.28376174px"
         d="m 63.730994,281.53552 q 0.372437,-0.24475 0.787438,-0.35116 0.415002,-0.10641 0.883209,-0.10641 1.691929,0 1.691929,1.58552 v 2.25591 q 0,0.51077 0.404361,0.51077 0.180898,0 0.319231,-0.0639 l 0.01064,0.48949 q -0.287309,0.15962 -0.617182,0.15962 -0.840644,0 -0.861926,-0.9577 v -0.0213 q -0.223463,0.38308 -0.638464,0.68103 -0.404361,0.29795 -0.978978,0.29795 -0.468207,0 -0.957696,-0.28731 -0.478848,-0.28731 -0.478848,-1.04283 0,-0.89385 0.70231,-1.17051 0.712952,-0.28731 1.511031,-0.28731 0.212822,0 0.425643,0.0106 0.223462,0.0106 0.415002,0.0319 v -0.42564 q 0,-0.51077 -0.223463,-0.83 -0.212821,-0.31924 -0.851285,-0.31924 -0.521412,0 -0.915132,0.19154 l -0.180898,0.81937 -0.617181,-0.0745 z m 2.617702,2.59642 v -0.3618 q -0.202181,-0.0106 -0.425643,-0.0319 -0.223462,-0.0213 -0.457566,-0.0213 -0.532053,0 -0.968337,0.17025 -0.425642,0.15962 -0.425642,0.71296 0,0.45756 0.287308,0.62782 0.287309,0.17026 0.5959,0.17026 0.489489,0 0.915132,-0.34052 0.436283,-0.34051 0.478848,-0.92577 z" />
      <path
         id="path34283"
         style="font-weight:normal;font-size:10.64106464px;fill:#000000;stroke-width:0.28376174px"
         d="m 71.897177,284.63207 q -0.191539,1.38334 -1.50039,1.38334 -0.712951,0 -1.09603,-0.40436 -0.372437,-0.40436 -0.372437,-1.09603 v -2.7454 h -0.766157 v -0.5959 h 0.766157 v -1.52167 h 0.744875 v 1.52167 h 1.851545 v 0.5959 h -1.851545 v 2.64963 q 0,0.42564 0.180898,0.69167 0.191539,0.25538 0.617181,0.25538 0.276668,0 0.510772,-0.17025 0.244744,-0.17026 0.351155,-0.74488 z" />
      <path
         id="path34285"
         style="font-weight:normal;font-size:10.64106464px;fill:#000000;stroke-width:0.28376174px"
         d="m 76.580248,284.54694 q -0.09577,0.60654 -0.606541,1.04282 -0.510771,0.42565 -1.383338,0.42565 -1.00026,0 -1.617442,-0.62783 -0.617182,-0.62782 -0.617182,-1.77705 0,-1.10667 0.585259,-1.81963 0.585258,-0.71295 1.585518,-0.71295 0.978978,0 1.489749,0.61718 0.510772,0.61719 0.521413,1.45783 0,0.27667 -0.06385,0.56398 h -3.330653 q 0.06385,1.66 1.50039,1.66 0.563977,0 0.883208,-0.26602 0.319232,-0.26603 0.425643,-0.70231 z m -0.830003,-1.38334 q 0.0532,-0.53205 -0.255386,-1.00026 -0.29795,-0.46821 -0.989619,-0.46821 -0.659746,0 -0.968337,0.43629 -0.30859,0.43628 -0.383078,1.03218 z" />
      <path
         id="path34287"
         style="font-weight:normal;font-size:10.64106464px;fill:#000000;stroke-width:0.28376174px"
         d="m 84.900891,281.78026 h -0.542694 l -1.39398,4.12874 H 82.3896 l -1.447185,-3.61797 h -0.0532 l -1.415262,3.61797 h -0.553335 l -1.447185,-4.12874 h -0.521412 v -0.60654 h 2.234623 v 0.60654 h -0.90449 l 0.989619,2.99014 h 0.05321 l 1.404621,-3.59668 h 0.50013 l 1.479108,3.59668 h 0.05321 l 0.872567,-2.99014 h -0.861926 v -0.60654 h 2.128213 z" />
      <path
         id="path34289"
         style="font-weight:normal;font-size:10.64106464px;fill:#000000;stroke-width:0.28376174px"
         d="m 85.865237,281.53552 q 0.372437,-0.24475 0.787438,-0.35116 0.415002,-0.10641 0.883209,-0.10641 1.691929,0 1.691929,1.58552 v 2.25591 q 0,0.51077 0.404361,0.51077 0.180898,0 0.319231,-0.0639 l 0.01064,0.48949 q -0.287309,0.15962 -0.617182,0.15962 -0.840644,0 -0.861926,-0.9577 v -0.0213 q -0.223463,0.38308 -0.638464,0.68103 -0.404361,0.29795 -0.978978,0.29795 -0.468207,0 -0.957696,-0.28731 -0.478848,-0.28731 -0.478848,-1.04283 0,-0.89385 0.70231,-1.17051 0.712952,-0.28731 1.511031,-0.28731 0.212822,0 0.425643,0.0106 0.223462,0.0106 0.415002,0.0319 v -0.42564 q 0,-0.51077 -0.223463,-0.83 -0.212821,-0.31924 -0.851285,-0.31924 -0.521412,0 -0.915132,0.19154 l -0.180898,0.81937 -0.617181,-0.0745 z m 2.617702,2.59642 v -0.3618 q -0.202181,-0.0106 -0.425643,-0.0319 -0.223462,-0.0213 -0.457566,-0.0213 -0.532053,0 -0.968337,0.17025 -0.425642,0.15962 -0.425642,0.71296 0,0.45756 0.287308,0.62782 0.287309,0.17026 0.5959,0.17026 0.489489,0 0.915132,-0.34052 0.436283,-0.34051 0.478848,-0.92577 z" />
      <path
         id="path34291"
         style="font-weight:normal;font-size:10.64106464px;fill:#000000;stroke-width:0.28376174px"
         d="m 95.249994,281.78026 h -0.563976 l -1.670648,4.12874 -0.638464,1.66 h 0.808721 v 0.60654 h -2.40488 V 287.569 h 0.883208 l 0.617182,-1.67064 -1.723853,-4.1181 h -0.563976 v -0.60654 h 2.192059 v 0.60654 h -0.830003 l 1.330133,3.18168 h 0.06385 l 1.181158,-3.18168 h -0.766157 v -0.60654 h 2.085649 z" />
    </g>
    <g
       transform="matrix(0.06669906,0,0,0.06669906,-15.974429,273.68871)"
       id="g27527">
      <rect
         x="239.5"
         y="245.8"
         width="362.79999"
         height="103.7"
         id="rect27523" />
      <path
         style="fill:#ffffff"
         class="st0"
         d="m 586.1,320.2 c -0.7,0.2 -1.3,0.3 -1.9,0.3 -2.1,0 -3.1,-0.9 -3.1,-3.5 v -19.7 c 0,-10.4 -8.3,-15.4 -18,-15.4 -7.4,0 -11.5,0.9 -19.4,4.1 l -1.8,10.4 10.4,1.1 1.5,-5.1 c 2.1,-1.1 4.2,-1.3 6.9,-1.3 7.3,0 7.4,5.5 7.4,10.2 v 1.5 c -2.3,-0.3 -4.9,-0.4 -7.4,-0.4 -10.4,0 -21.1,2.6 -21.1,13.8 0,9.5 7.4,13 14,13 7.3,0 12,-4.4 14.6,-9.1 0.6,5.5 3.9,9.1 10,9.1 2.8,0 5.7,-0.8 8.2,-2.1 z m -27.9,-0.3 c -3.9,0 -5.3,-2.3 -5.3,-5.2 0,-4.9 4,-6.2 8.7,-6.2 2.1,0 4.4,0.3 6.5,0.6 -0.4,7.5 -5.3,10.8 -9.9,10.8 z M 540.8,259 521.2,328.2 H 508.4 L 528,259 Z m -26.4,0 -19.6,69.2 H 482 L 501.6,259 Z m -54.5,23.8 h 13.6 v 16.3 h -13.6 z m 0,29.1 h 13.6 v 16.3 h -13.6 z m -19.8,-0.6 10.3,1 -2.8,15.9 h -39.7 l -1.3,-6.8 25,-28.7 h -14.2 l -2,7 -9.4,-1 1.6,-15.9 h 39.9 l 1,6.8 -25.2,28.7 H 438 Z m -65,-29.4 c -16.3,0 -24.4,11 -24.4,24.3 0,14.5 9.7,23 23.7,23 14.5,0 25,-9.2 25,-23.7 -0.1,-12.6 -8,-23.6 -24.3,-23.6 z m -0.3,37.3 c -7,0 -10.7,-6 -10.7,-13.9 0,-8.6 4.1,-13.5 10.8,-13.5 6.1,0 11.1,4.1 11.1,13.3 -0.1,8.7 -4.5,14.1 -11.2,14.1 z M 339,318.3 h 6 v 9.9 h -19 v -25.6 c 0,-7.9 -2.6,-10.9 -7.7,-10.9 -6.2,0 -8.8,4.4 -8.8,10.8 v 15.8 h 6 v 9.9 h -19 v -25.6 c 0,-7.9 -2.6,-10.9 -7.8,-10.9 -6.2,0 -8.8,4.4 -8.8,10.8 v 15.8 h 8.7 v 9.9 H 261 v -9.9 h 6 v -25.7 h -6 v -9.9 h 19 v 6.8 c 2.7,-4.8 7.4,-7.7 13.8,-7.7 6.5,0 12.6,3.1 14.8,9.8 2.5,-6 7.6,-9.8 14.8,-9.8 8.2,0 15.6,4.9 15.6,15.7 z"
         id="path27525" />
    </g>
  </g>
</svg>
