<?xml version="1.0" encoding="UTF-8" standalone="no"?>
<svg
   xmlns:dc="http://purl.org/dc/elements/1.1/"
   xmlns:cc="http://creativecommons.org/ns#"
   xmlns:rdf="http://www.w3.org/1999/02/22-rdf-syntax-ns#"
   xmlns:svg="http://www.w3.org/2000/svg"
   xmlns="http://www.w3.org/2000/svg"
   id="svg29505"
   version="1.1"
   viewBox="0 0 78.845835 26.458334"
   height="100"
   width="298">
  <defs
     id="defs29499" />
  <metadata
     id="metadata29502">
    <rdf:RDF>
      <cc:Work
         rdf:about="">
        <dc:format>image/svg+xml</dc:format>
        <dc:type
           rdf:resource="http://purl.org/dc/dcmitype/StillImage" />
        <dc:title></dc:title>
      </cc:Work>
    </rdf:RDF>
  </metadata>
  <g
     transform="translate(0,-270.54165)"
     id="layer1">
    <g
       id="g33300">
      <g
         aria-label="WebThings"
         style="font-style:normal;font-weight:normal;font-size:3.41925216px;line-height:0%;font-family:sans-serif;letter-spacing:0px;word-spacing:0px;fill:#ffffff;fill-opacity:1;stroke:none;stroke-width:0.28493768px;stroke-linecap:butt;stroke-linejoin:miter;stroke-opacity:1"
         id="text29477">
        <path
           d="M 15.233577,272.65876 H 14.38992 l -2.817496,8.83453 h -1.305281 l -2.530971,-7.29047 h -0.07959 l -2.451381,7.29047 H 3.8840024 L 0.89140774,272.65876 H -3.4216642e-6 v -1.51221 H 3.9317565 v 1.51221 h -1.1461 l 1.7828223,5.92152 h 0.07959 l 2.0534293,-5.92152 h -0.907329 v -1.51221 H 9.710011 v 1.51221 H 8.866354 l 2.053429,6.00111 h 0.07959 l 1.623641,-6.00111 H 11.34957 v -1.51221 h 3.884006 z"
           style="font-style:normal;font-variant:normal;font-weight:600;font-stretch:normal;font-size:15.91805649px;line-height:1.25;font-family:'Zilla Slab';-inkscape-font-specification:'Zilla Slab Semi-Bold';text-align:start;text-anchor:start;fill:#ffffff;fill-opacity:1;stroke-width:0.28493768px"
           id="path30068" />
        <path
           d="m 21.682131,279.31251 q -0.09551,0.93917 -0.923248,1.63956 -0.827739,0.7004 -2.276282,0.7004 -1.559969,0 -2.562807,-0.90733 -1.002837,-0.92325 -1.002837,-2.70607 0,-1.63956 0.907329,-2.73791 0.923247,-1.09834 2.562807,-1.09834 1.480379,0 2.339954,0.89141 0.875493,0.87549 0.891411,2.22853 0,0.4457 -0.09551,0.95508 h -4.823171 q 0.143262,2.00567 1.910167,2.00567 0.827739,0 1.177936,-0.39795 0.366115,-0.39795 0.477542,-0.84365 z m -1.814659,-2.08526 q 0.06367,-0.63673 -0.302443,-1.19386 -0.350197,-0.57305 -1.193854,-0.57305 -0.764067,0 -1.162018,0.50938 -0.397952,0.50938 -0.49346,1.25753 z"
           style="font-style:normal;font-variant:normal;font-weight:600;font-stretch:normal;font-size:15.91805649px;line-height:1.25;font-family:'Zilla Slab';-inkscape-font-specification:'Zilla Slab Semi-Bold';text-align:start;text-anchor:start;fill:#ffffff;fill-opacity:1;stroke-width:0.28493768px"
           id="path30070" />
        <path
           d="m 30.333843,277.75254 q 0,1.51222 -0.795903,2.70607 -0.795903,1.19386 -2.45138,1.19386 -1.687314,0 -2.371791,-1.27345 -0.03184,0.19102 -0.07959,0.55713 -0.04775,0.36612 -0.07959,0.55714 h -1.687314 q 0.09551,-0.5253 0.175098,-1.06651 0.07959,-0.55714 0.07959,-1.08243 v -7.49741 h -1.066509 v -1.30528 h 2.753823 v 5.22113 q 0.318362,-0.63673 0.891412,-1.09835 0.588968,-0.46162 1.575887,-0.46162 1.353035,0 2.196692,0.93916 0.859575,0.92325 0.859575,2.61056 z m -1.766904,0.14327 q 0,-1.13019 -0.509378,-1.71915 -0.509378,-0.60489 -1.305281,-0.60489 -0.907329,0 -1.416707,0.66856 -0.509378,0.66856 -0.525296,1.44854 v 0.50938 q 0,0.87549 0.509378,1.4963 0.525296,0.60488 1.368953,0.60488 0.891411,0 1.384871,-0.65264 0.49346,-0.65264 0.49346,-1.75098 z"
           style="font-style:normal;font-variant:normal;font-weight:600;font-stretch:normal;font-size:15.91805649px;line-height:1.25;font-family:'Zilla Slab';-inkscape-font-specification:'Zilla Slab Semi-Bold';text-align:start;text-anchor:start;fill:#ffffff;fill-opacity:1;stroke-width:0.28493768px"
           id="path30072" />
        <path
           d="m 39.900595,274.52118 -1.528133,0.12734 -0.318362,-1.98976 h -2.021593 v 7.32231 h 1.735068 v 1.51222 h -5.173368 v -1.51222 h 1.671396 v -7.32231 h -2.037511 l -0.318361,1.98976 -1.512216,-0.12734 0.318361,-3.37463 h 8.866358 z"
           style="font-style:normal;font-variant:normal;font-weight:600;font-stretch:normal;font-size:15.91805649px;line-height:1.25;font-family:'Zilla Slab';-inkscape-font-specification:'Zilla Slab Semi-Bold';text-align:start;text-anchor:start;fill:#ffffff;fill-opacity:1;stroke-width:0.28493768px"
           id="path30074" />
        <path
           d="m 49.175598,281.49329 h -3.836252 v -1.30528 h 1.06651 v -2.80158 q 0,-1.01876 -0.382033,-1.43263 -0.382033,-0.42979 -1.034674,-0.42979 -0.779985,0 -1.241608,0.50938 -0.461624,0.50938 -0.49346,1.24161 v 2.91301 h 1.050592 v 1.30528 h -3.820334 v -1.30528 h 1.06651 v -8.34107 h -1.06651 v -1.30528 h 2.769742 v 4.98235 q 0.732231,-1.32119 2.37179,-1.32119 1.034674,0 1.750987,0.6208 0.73223,0.6208 0.73223,1.942 v 3.42239 h 1.06651 z"
           style="font-style:normal;font-variant:normal;font-weight:600;font-stretch:normal;font-size:15.91805649px;line-height:1.25;font-family:'Zilla Slab';-inkscape-font-specification:'Zilla Slab Semi-Bold';text-align:start;text-anchor:start;fill:#ffffff;fill-opacity:1;stroke-width:0.28493768px"
           id="path30076" />
        <path
           d="m 50.835307,272.8657 v -1.87833 h 1.735069 v 1.87833 z m 2.849332,8.62759 h -3.820333 v -1.30528 h 1.06651 v -4.52073 h -1.130182 v -1.3212 h 2.817496 v 5.84193 h 1.066509 z"
           style="font-style:normal;font-variant:normal;font-weight:600;font-stretch:normal;font-size:15.91805649px;line-height:1.25;font-family:'Zilla Slab';-inkscape-font-specification:'Zilla Slab Semi-Bold';text-align:start;text-anchor:start;fill:#ffffff;fill-opacity:1;stroke-width:0.28493768px"
           id="path30078" />
        <path
           d="m 63.155383,281.49329 h -3.820334 v -1.30528 h 1.050592 v -2.80158 q 0,-1.01876 -0.366115,-1.43263 -0.366116,-0.42979 -1.018756,-0.42979 -0.811821,0 -1.289362,0.5253 -0.461624,0.5253 -0.477542,1.28936 v 2.84934 h 1.06651 v 1.30528 h -3.836252 v -1.30528 h 1.06651 v -4.52073 H 54.41637 v -1.3212 h 2.817496 v 1.16202 q 0.748148,-1.30528 2.37179,-1.30528 1.018756,0 1.750986,0.6208 0.732231,0.6208 0.732231,1.942 v 3.42239 h 1.06651 z"
           style="font-style:normal;font-variant:normal;font-weight:600;font-stretch:normal;font-size:15.91805649px;line-height:1.25;font-family:'Zilla Slab';-inkscape-font-specification:'Zilla Slab Semi-Bold';text-align:start;text-anchor:start;fill:#ffffff;fill-opacity:1;stroke-width:0.28493768px"
           id="path30080" />
        <path
           d="m 72.020747,275.66728 h -1.034673 v 5.5554 q 0,1.70323 -0.955084,2.75382 -0.939165,1.05059 -2.817496,1.05059 -1.114264,0 -2.085265,-0.47754 -0.971001,-0.47754 -1.368953,-1.63956 l 1.321199,-0.71631 q 0.668558,1.46446 2.164855,1.46446 0.891412,0 1.464462,-0.63672 0.57305,-0.63672 0.57305,-1.81466 v -1.06651 q -0.302443,0.57305 -0.875493,0.98692 -0.557132,0.39795 -1.544052,0.39795 -1.257526,0 -2.180774,-0.87549 -0.907329,-0.89141 -0.907329,-2.57873 0,-1.52813 0.811821,-2.69015 0.827739,-1.17793 2.387709,-1.17793 1.623641,0 2.308118,1.25752 v -1.11426 h 2.737905 z m -2.737905,2.41954 v -0.57305 q 0,-0.89141 -0.509378,-1.41671 -0.509378,-0.52529 -1.273445,-0.52529 -0.891411,0 -1.368952,0.65264 -0.477542,0.63672 -0.477542,1.73507 0,1.13018 0.477542,1.67139 0.477541,0.5253 1.209772,0.5253 0.907329,0 1.416707,-0.63672 0.525296,-0.63673 0.525296,-1.43263 z"
           style="font-style:normal;font-variant:normal;font-weight:600;font-stretch:normal;font-size:15.91805649px;line-height:1.25;font-family:'Zilla Slab';-inkscape-font-specification:'Zilla Slab Semi-Bold';text-align:start;text-anchor:start;fill:#ffffff;fill-opacity:1;stroke-width:0.28493768px"
           id="path30082" />
        <path
           d="m 78.953804,279.36027 q 0,1.11426 -0.923247,1.70323 -0.90733,0.58897 -2.324037,0.58897 -0.764066,0 -1.544051,-0.1751 -0.764067,-0.1751 -1.384871,-0.5253 l 0.254689,-1.84649 1.337117,0.12734 -0.01592,0.92325 q 0.302444,0.12734 0.636723,0.1751 0.350197,0.0478 0.620804,0.0478 0.65264,0 1.130182,-0.22285 0.49346,-0.23877 0.49346,-0.7004 0,-0.4457 -0.445706,-0.63672 -0.429787,-0.19101 -1.082428,-0.28652 -0.65264,-0.11143 -1.30528,-0.28653 -0.652641,-0.19101 -1.098346,-0.60488 -0.429788,-0.42979 -0.429788,-1.27345 0,-1.24161 0.939166,-1.70323 0.955083,-0.46162 2.005675,-0.46162 1.384871,0 2.610561,0.65264 l 0.175099,1.7669 -1.337117,0.15918 -0.143263,-1.06651 q -0.620804,-0.23877 -1.257526,-0.23877 -0.49346,0 -0.843657,0.20694 -0.334279,0.19101 -0.334279,0.6208 0,0.44571 0.429787,0.6208 0.429788,0.1751 1.06651,0.28653 0.636722,0.0955 1.273444,0.28652 0.636723,0.1751 1.06651,0.60489 0.429788,0.41387 0.429788,1.25753 z"
           style="font-style:normal;font-variant:normal;font-weight:600;font-stretch:normal;font-size:15.91805649px;line-height:1.25;font-family:'Zilla Slab';-inkscape-font-specification:'Zilla Slab Semi-Bold';text-align:start;text-anchor:start;fill:#ffffff;fill-opacity:1;stroke-width:0.28493768px"
           id="path30084" />
      </g>
      <rect
         style="stroke-width:0.09977566"
         x="0.031812314"
         y="286.65326"
         width="36.198608"
         height="10.346736"
         id="rect29480" />
      <path
         id="path29482"
         d="m 34.614032,294.07643 c -0.06983,0.0214 -0.129691,0.0299 -0.189554,0.0299 -0.209536,0 -0.309309,-0.0898 -0.309309,-0.34914 v -1.96554 c 0,-1.03779 -0.828154,-1.53652 -1.795962,-1.53652 -0.738345,0 -1.147426,0.0897 -1.935644,0.40897 l -0.179591,1.0378 1.037663,0.10979 0.149645,-0.50888 c 0.209537,-0.10979 0.419073,-0.12983 0.688472,-0.12983 0.728354,0 0.738318,0.54869 0.738318,1.01776 v 0.1496 c -0.229464,-0.0299 -0.488899,-0.0398 -0.738318,-0.0398 -1.037689,0 -2.105271,0.25939 -2.105271,1.37679 0,0.94804 0.738345,1.29718 1.396845,1.29718 0.728381,0 1.197326,-0.43916 1.456735,-0.90798 0.05986,0.54869 0.389127,0.90798 0.997754,0.90798 0.279363,0 0.568717,-0.0799 0.818163,-0.2097 z m -2.783725,-0.0299 c -0.389127,0 -0.528809,-0.22946 -0.528809,-0.51876 0,-0.48885 0.399091,-0.61868 0.868036,-0.61868 0.209536,0 0.439027,0.0299 0.648536,0.0598 -0.03991,0.7485 -0.528808,1.0776 -0.987763,1.0776 z m -1.736098,-6.07638 -1.955599,6.90448 h -1.277144 l 1.955625,-6.90448 z m -2.63408,0 -1.955599,6.90448 h -1.277144 l 1.955626,-6.90448 z m -5.437786,2.37477 h 1.356962 v 1.62628 h -1.356962 z m 0,2.90343 h 1.356962 v 1.62628 h -1.356962 z m -1.975553,-0.0598 1.027699,0.0999 -0.279364,1.58621 h -3.961097 l -0.129717,-0.67851 2.494397,-2.86335 h -1.416826 l -0.199545,0.69827 -0.93789,-0.0996 0.159636,-1.58648 h 3.981051 l 0.09977,0.67851 -2.514352,2.86362 h 1.466725 z m -6.485413,-2.93334 c -1.626335,0 -2.434534,1.09736 -2.434534,2.42446 0,1.44677 0.967835,2.29491 2.364679,2.29491 1.446772,0 2.494398,-0.91786 2.494398,-2.36463 -0.0099,-1.25738 -0.798208,-2.35474 -2.424543,-2.35474 z m -0.02992,3.72164 c -0.698435,0 -1.067608,-0.59864 -1.067608,-1.38693 0,-0.85802 0.409082,-1.34687 1.077572,-1.34687 0.608627,0 1.107517,0.40898 1.107517,1.32683 -0.0099,0.86817 -0.44899,1.40697 -1.117481,1.40697 z m -3.5719695,-0.0898 h 0.5986365 v 0.98758 H 8.6623899 v -2.55429 c 0,-0.78803 -0.2594091,-1.08748 -0.7682632,-1.08748 -0.6186176,0 -0.8780266,0.43916 -0.8780266,1.0776 v 1.57659 h 0.5986363 v 0.98758 H 5.7190015 v -2.55429 c 0,-0.78803 -0.2594091,-1.08748 -0.7782538,-1.08748 -0.6185908,0 -0.8779999,0.43916 -0.8779999,1.0776 v 1.57659 h 0.8680359 v 0.98758 H 2.1769769 v -0.98758 H 2.7756398 V 291.3226 H 2.1769769 v -0.98758 h 1.8957348 v 0.67824 c 0.2693997,-0.4787 0.7383448,-0.76826 1.3769168,-0.76826 0.648536,0 1.2571629,0.30933 1.4766628,0.97796 0.2494451,-0.59864 0.7582993,-0.97796 1.4766895,-0.97796 0.8181629,0 1.5565077,0.48911 1.5565077,1.56671 z"
         class="st0"
         style="fill:#ffffff;stroke-width:0.09977566" />
    </g>
  </g>
</svg>
