<?xml version="1.0" encoding="UTF-8" standalone="no"?>
<svg
   xmlns:dc="http://purl.org/dc/elements/1.1/"
   xmlns:cc="http://creativecommons.org/ns#"
   xmlns:rdf="http://www.w3.org/1999/02/22-rdf-syntax-ns#"
   xmlns:svg="http://www.w3.org/2000/svg"
   xmlns="http://www.w3.org/2000/svg"
   id="svg28820"
   version="1.1"
   viewBox="0 0 42.597916 8.4666669"
   height="32"
   width="161">
  <defs
     id="defs28814" />
  <metadata
     id="metadata28817">
    <rdf:RDF>
      <cc:Work
         rdf:about="">
        <dc:format>image/svg+xml</dc:format>
        <dc:type
           rdf:resource="http://purl.org/dc/dcmitype/StillImage" />
        <dc:title></dc:title>
      </cc:Work>
    </rdf:RDF>
  </metadata>
  <g
     transform="translate(0,-288.53332)"
     id="layer1">
    <g
       transform="matrix(0.21166666,0,0,0.21978975,-489.51346,-10774.407)"
       id="g28797">
      <g
         id="text28792"
         style="font-style:normal;font-weight:normal;font-size:35.76473999px;line-height:0%;font-family:sans-serif;letter-spacing:0px;word-spacing:0px;fill:#ffffff;fill-opacity:1;stroke:none;stroke-width:1px;stroke-linecap:butt;stroke-linejoin:miter;stroke-opacity:1"
         transform="scale(1.0217394,0.97872314)"
         aria-label="IoT">
        <g
           id="g29418">
          <rect
             transform="matrix(0.97872314,0,0,1.0217394,1.5412964e-5,-2.1693992e-4)"
             style="color:#000000;clip-rule:nonzero;display:inline;overflow:visible;visibility:visible;opacity:1;isolation:auto;mix-blend-mode:normal;color-interpolation:sRGB;color-interpolation-filters:linearRGB;solid-color:#000000;solid-opacity:1;fill:#000000;fill-opacity:1;fill-rule:nonzero;stroke:none;stroke-width:1;stroke-linecap:butt;stroke-linejoin:miter;stroke-miterlimit:4;stroke-dasharray:none;stroke-dashoffset:0;stroke-opacity:1;color-rendering:auto;image-rendering:auto;shape-rendering:auto;text-rendering:auto;enable-background:accumulate"
             id="rect28782"
             width="132.35803"
             height="38.521664"
             x="2312.6621"
             y="50334.195" />
          <path
             transform="matrix(0.97872314,0,0,1.0217394,1.5412964e-5,-2.1693992e-4)"
             id="path28785"
             d="m 2363.8473,50365.258 c 3.2362,-0.652 5.6082,-2.734 6.39,-5.608 0.3042,-1.118 0.3688,-2.773 0.1546,-3.949 -0.6408,-3.513 -3.1982,-5.876 -6.9169,-6.39 -1.2236,-0.169 -3.3095,-0.07 -4.3917,0.209 -3.5822,0.923 -5.7642,3.682 -5.9394,7.508 -0.095,2.071 0.256,3.539 1.195,4.997 1.1573,1.798 3.3112,3.05 5.7993,3.371 0.9494,0.123 2.7482,0.05 3.7091,-0.138 z m -3.3855,-3.696 c -0.2866,-0.111 -0.7217,-0.389 -0.9664,-0.62 -0.9077,-0.853 -1.3068,-1.977 -1.3095,-3.688 -0.011,-2.09 0.7373,-3.495 2.1635,-4.107 0.7858,-0.337 2.1092,-0.323 2.909,0.03 1.1215,0.495 1.7378,1.253 2.0504,2.523 0.3151,1.281 0.1207,3.241 -0.4213,4.245 -0.2831,0.526 -1.0076,1.209 -1.5769,1.489 -0.7347,0.361 -2.0866,0.422 -2.8488,0.128 z m 65.365,3.788 c 1.214,-0.245 1.9967,-0.674 2.9847,-1.637 0.7147,-0.695 0.8845,-0.817 0.9383,-0.668 0.385,1.066 0.8556,1.621 1.7335,2.041 1.0666,0.51 2.5379,0.511 3.9564,0 0.8695,-0.311 0.8951,-0.354 0.8951,-1.521 0,-1.308 -0.047,-1.39 -0.7924,-1.374 -1.002,0.02 -0.9413,0.298 -1.009,-4.559 -0.055,-4.022 -0.07,-4.247 -0.2911,-4.818 -0.349,-0.902 -0.6835,-1.387 -1.3854,-2.01 -0.7065,-0.626 -1.6105,-1.091 -2.6475,-1.361 -0.5549,-0.144 -1.0811,-0.176 -2.7457,-0.168 -1.9406,0 -2.1295,0.03 -3.2741,0.319 -1.118,0.283 -2.7082,0.818 -3.0448,1.023 -0.1998,0.122 -0.8051,3.528 -0.6573,3.699 0.1393,0.16 3.6714,0.534 3.8017,0.402 0.05,-0.05 0.1898,-0.433 0.3113,-0.85 0.1214,-0.418 0.2979,-0.813 0.392,-0.88 0.4495,-0.316 2.3282,-0.444 3.1337,-0.213 0.9656,0.277 1.4495,1.149 1.4495,2.609 v 0.772 h -2.1385 c -2.3959,0 -3.4534,0.142 -4.8289,0.653 -1.3685,0.508 -2.3687,1.416 -2.8072,2.548 -0.3006,0.776 -0.2779,2.538 0.043,3.312 0.606,1.464 1.9502,2.431 3.793,2.728 0.7845,0.127 1.3903,0.114 2.19,-0.04 z m -0.1586,-3.4 c -0.763,-0.217 -1.1154,-0.818 -1.0336,-1.762 0.061,-0.702 0.4303,-1.177 1.111,-1.428 0.4069,-0.151 0.8016,-0.186 2.0559,-0.186 1.1179,0 1.5903,0.04 1.6873,0.128 0.2102,0.202 -0.1499,1.373 -0.629,2.046 -0.3147,0.442 -0.5358,0.623 -1.0808,0.883 -0.7572,0.363 -1.5412,0.481 -2.1108,0.319 z m -94.121,1.386 c 0.023,-1.302 -0.01,-1.732 -0.1055,-1.795 -0.074,-0.04 -0.7693,-0.08 -1.5452,-0.08 h -1.4105 l 0.048,-3.111 c 0.054,-3.42 0.1059,-3.755 0.7129,-4.546 0.4065,-0.529 1.0851,-0.85 1.9343,-0.915 1.2809,-0.1 2.0885,0.341 2.5225,1.37 0.2403,0.57 0.2431,0.626 0.2694,5.482 0.014,2.698 0.051,5.009 0.081,5.134 l 0.056,0.228 h 3.419 c 3.0203,0 3.4265,-0.01 3.4832,-0.16 0.035,-0.09 0.064,-0.861 0.064,-1.716 0,-1.836 0.05,-1.766 -1.267,-1.766 h -0.8585 l 0.033,-3.262 c 0.032,-3.159 0.041,-3.28 0.2762,-3.769 0.463,-0.962 1.2001,-1.46 2.2883,-1.542 1.3488,-0.103 2.2227,0.425 2.5899,1.564 0.1991,0.617 0.2119,0.938 0.2119,5.338 0,2.574 0.03,4.823 0.066,4.998 l 0.066,0.318 3.4453,-0.02 3.445,-0.03 0.029,-1.669 c 0.035,-1.993 0.079,-1.923 -1.211,-1.923 h -0.8776 v -3.768 c 0,-4.243 -0.054,-4.678 -0.6891,-5.837 -0.9105,-1.66 -2.7427,-2.632 -4.959,-2.632 -2.0654,0 -3.7594,0.827 -4.7907,2.338 l -0.4192,0.615 -0.161,-0.298 c -0.8282,-1.535 -2.5603,-2.519 -4.6292,-2.632 -1.8521,-0.1 -3.2015,0.329 -4.3495,1.385 -0.3656,0.337 -0.6944,0.612 -0.7307,0.612 -0.036,0 -0.079,-0.376 -0.097,-0.835 l -0.031,-0.834 h -3.5379 -3.5379 l -0.029,1.655 c -0.02,1.135 0.011,1.7 0.092,1.796 0.089,0.101 0.4051,0.14 1.1644,0.14 h 1.0431 v 4.147 4.148 h -0.9293 c -0.5821,0 -0.9767,0.04 -1.0561,0.122 -0.1372,0.131 -0.1884,3.326 -0.055,3.454 0.038,0.04 2.2848,0.05 4.99,0.04 l 4.9185,-0.02 0.029,-1.713 z m 55.9344,1.675 c 0.056,-0.08 1.0125,-5.139 1.0125,-5.347 0,-0.173 -0.2268,-0.217 -2.0178,-0.393 -1.2843,-0.125 -1.7247,-0.138 -1.8186,-0.05 -0.068,0.06 -0.2692,0.582 -0.4468,1.151 l -0.3227,1.033 -2.2911,0.03 c -1.2601,0.01 -2.291,0 -2.291,-0.02 0,-0.03 1.8733,-2.096 4.1628,-4.596 2.2896,-2.499 4.2085,-4.629 4.2643,-4.731 0.1167,-0.214 -0.149,-2.231 -0.3212,-2.437 -0.082,-0.1 -1.6317,-0.127 -7.1026,-0.127 -5.4706,0 -7.0204,0.03 -7.1034,0.127 -0.058,0.07 -0.2079,1.128 -0.3321,2.353 -0.1243,1.223 -0.249,2.384 -0.2773,2.578 -0.029,0.195 -0.014,0.41 0.032,0.478 0.079,0.115 2.3819,0.43 3.1541,0.432 0.382,0 0.37,0.02 0.772,-1.314 l 0.2893,-0.961 2.2545,-0.03 2.2544,-0.02 -0.2165,0.23 c -0.9483,1.005 -8.0766,8.908 -8.2042,9.095 -0.1483,0.217 -0.1447,0.331 0.037,1.235 0.1111,0.549 0.2305,1.083 0.2657,1.189 0.062,0.187 0.2784,0.192 7.126,0.192 3.8844,0 7.0877,-0.04 7.1186,-0.09 z m 9.0915,-2.796 v -2.832 h -2.4818 -2.4818 l -0.028,2.729 c -0.016,1.502 -0.011,2.789 0.024,2.861 0.041,0.101 0.5863,0.123 2.5101,0.101 l 2.458,-0.03 z m 7.5218,2.757 c 0.1144,-0.141 6.8938,-23.023 6.8938,-23.268 0,-0.08 -0.075,-0.182 -0.1671,-0.216 -0.092,-0.03 -1.1102,-0.06 -2.2631,-0.06 -1.6125,0 -2.1286,0.03 -2.2375,0.136 -0.1903,0.182 -6.9901,23.187 -6.9118,23.383 0.053,0.13 0.3983,0.153 2.3225,0.153 1.6839,0 2.2871,-0.03 2.3632,-0.126 z m 9.3087,-0.05 c 0.1214,-0.218 6.8786,-23.04 6.8786,-23.234 0,-0.233 -0.2603,-0.261 -2.4301,-0.261 -1.7646,0 -2.1222,0.02 -2.2619,0.159 -0.091,0.09 -0.166,0.178 -0.166,0.202 0,0.02 -1.5207,5.184 -3.3794,11.469 -1.8587,6.284 -3.3795,11.519 -3.3795,11.634 0,0.203 0.048,0.208 2.3197,0.208 2.1012,0 2.3291,-0.01 2.4186,-0.177 z m -16.8305,-12.519 v -2.832 h -2.4818 -2.4818 l -0.028,2.729 c -0.016,1.502 -0.011,2.789 0.024,2.86 0.041,0.102 0.5863,0.124 2.5101,0.103 l 2.458,-0.03 z"
             style="fill:#ffffff;fill-opacity:1" />
          <rect
             transform="matrix(0.97872314,0,0,1.0217394,1.5412964e-5,-2.1693992e-4)"
             y="50334.195"
             x="2449.02"
             height="38.501431"
             width="64.975769"
             id="rect28788"
             style="color:#000000;clip-rule:nonzero;display:inline;overflow:visible;visibility:visible;opacity:1;isolation:auto;mix-blend-mode:normal;color-interpolation:sRGB;color-interpolation-filters:linearRGB;solid-color:#000000;solid-opacity:1;fill:#000000;fill-opacity:1;fill-rule:nonzero;stroke:none;stroke-width:1;stroke-linecap:butt;stroke-linejoin:miter;stroke-miterlimit:4;stroke-dasharray:none;stroke-dashoffset:0;stroke-opacity:1;color-rendering:auto;image-rendering:auto;shape-rendering:auto;text-rendering:auto;enable-background:accumulate" />
          <path
             d="m 2413.8482,51459.547 h -8.4762 v -2.289 h 2.9327 v -18.669 h -2.9327 v -2.289 h 8.4762 v 2.289 h -2.8969 v 18.669 h 2.8969 z"
             style="font-style:normal;font-variant:normal;font-weight:normal;font-stretch:normal;font-family:'Zilla Slab';-inkscape-font-specification:'Zilla Slab';fill:#ffffff;fill-opacity:1"
             id="path29402" />
          <path
             d="m 2431.5814,51451.571 q 0,3.613 -2.1459,5.973 -2.1459,2.361 -5.8296,2.361 -3.6123,0 -5.6866,-2.289 -2.0386,-2.289 -2.0386,-5.902 0,-3.469 2.0028,-5.937 2.0028,-2.503 5.8654,-2.503 3.8984,0 5.8654,2.468 1.9671,2.432 1.9671,5.829 z m -2.6466,-0.04 q 0,-2.719 -1.3948,-4.399 -1.3591,-1.717 -3.8626,-1.717 -2.5035,0 -3.8626,1.752 -1.3233,1.753 -1.3233,4.399 0,2.611 1.3233,4.399 1.3233,1.789 3.8626,1.789 2.5393,0 3.8983,-1.753 1.3591,-1.788 1.3591,-4.47 z"
             style="font-style:normal;font-variant:normal;font-weight:normal;font-stretch:normal;font-family:'Zilla Slab';-inkscape-font-specification:'Zilla Slab';fill:#ffffff;fill-opacity:1"
             id="path29404" />
          <path
             d="m 2452.0467,51443.381 -2.3248,0.179 -0.7152,-4.971 h -6.0085 v 18.669 h 4.1129 v 2.289 h -10.7294 v -2.289 h 4.0057 v -18.669 h -6.0085 l -0.7153,4.971 -2.289,-0.179 0.6796,-7.081 h 19.2772 z"
             style="font-style:normal;font-variant:normal;font-weight:normal;font-stretch:normal;font-family:'Zilla Slab';-inkscape-font-specification:'Zilla Slab';fill:#ffffff;fill-opacity:1"
             id="path29406" />
        </g>
      </g>
    </g>
  </g>
</svg>
