<svg xmlns="http://www.w3.org/2000/svg" width="180" height="180" viewBox="0 0 120 120"><defs><style>.a{fill:#00acc1;}</style></defs><title>CloudGraphic</title><path class="a" d="M100.99,36.733C100.99,24.273,89.118,15,76.436,15A23.139,23.139,0,0,0,56.449,25.663a19.652,19.652,0,0,0-11.98-3.655c-9.593,0-17.493,7.156-19.387,16.024-.363.016-.709.032-1.015.032A24.116,24.116,0,0,0,0,62.176C0,73.143,6.24,81.259,17.431,85.61L25.25,67.694a5.378,5.378,0,1,0-5.624-2.53L14.432,77.086c-.266.1-13.014-7.434-6.8-22.145,2.449-5.8,11.449-13.129,22.911-10.364,0-.023.089-1.357.406-3.358,1.04-6.575,6.3-12.59,13.711-12.59a16.762,16.762,0,0,1,10.474,3.813,15.106,15.106,0,0,1,3.129,3.043s.894-1.942,1.8-3.53C63,26.759,69.239,21.79,76.436,21.79c9.945,0,19.565,8.017,17.9,21.272l.1.007c12.043,1.318,18.3,9.708,18.3,18.241,0,10.263-10.354,18.8-19.354,18.934-2.722.039-5.36.028-7.181.034l5.133-11.8A5.748,5.748,0,1,0,85.7,65.982l-9.268,21.29H91.955C108.79,87.272,120,73.729,120,61.1,120,50.926,114.626,40.7,100.99,36.733Zm-10.5,23.452a2.6,2.6,0,1,1-2.6,2.6A2.6,2.6,0,0,1,90.492,60.185Zm-13.11-12.2L60.233,87.28H53.489L71.778,45.4a5.267,5.267,0,0,1-.749-2.659,5.332,5.332,0,1,1,6.353,5.239ZM56.144,52.529a5.763,5.763,0,1,0-10.552,3.208L28.964,93.89a5.6,5.6,0,1,0,5.644,2.456L51.256,58.215A5.755,5.755,0,0,0,56.144,52.529ZM29.926,101.921a2.525,2.525,0,1,1,2.52-2.524A2.522,2.522,0,0,1,29.926,101.921ZM47.784,52.529a2.6,2.6,0,1,1,2.6,2.6A2.6,2.6,0,0,1,47.784,52.529Z"/></svg>