<?xml version="1.0" encoding="UTF-8" standalone="no"?>
<svg
   xmlns:dc="http://purl.org/dc/elements/1.1/"
   xmlns:cc="http://creativecommons.org/ns#"
   xmlns:rdf="http://www.w3.org/1999/02/22-rdf-syntax-ns#"
   xmlns:svg="http://www.w3.org/2000/svg"
   xmlns="http://www.w3.org/2000/svg"
   id="svg33679"
   version="1.1"
   viewBox="0 0 107.95 18.520834"
   height="70"
   width="408">
  <defs
     id="defs33673" />
  <metadata
     id="metadata33676">
    <rdf:RDF>
      <cc:Work
         rdf:about="">
        <dc:format>image/svg+xml</dc:format>
        <dc:type
           rdf:resource="http://purl.org/dc/dcmitype/StillImage" />
        <dc:title></dc:title>
      </cc:Work>
    </rdf:RDF>
  </metadata>
  <g
     transform="translate(0,-278.47915)"
     id="layer1">
    <g
       id="text100254-6-27-1"
       style="font-style:normal;font-weight:normal;font-size:3.38666677px;line-height:0%;font-family:sans-serif;letter-spacing:0px;word-spacing:0px;fill:#ffffff;fill-opacity:1;stroke:none;stroke-width:0.28222224px;stroke-linecap:butt;stroke-linejoin:miter;stroke-opacity:1"
       aria-label="WebThings Framework">
      <path
         id="path34752"
         style="font-style:normal;font-variant:normal;font-weight:600;font-stretch:normal;font-family:'Zilla Slab';-inkscape-font-specification:'Zilla Slab Semi-Bold';fill:#ffffff;stroke-width:0.28222224px"
         d="M 10.12825,280.09534 H 9.5673329 l -1.8732501,5.87375 H 6.8262494 l -1.6827501,-4.84717 h -0.052917 l -1.6298334,4.84717 H 2.5823325 L 0.59266569,280.09534 H -1.0126829e-6 v -1.00542 H 2.6140825 v 1.00542 H 1.8520824 l 1.1853334,3.937 h 0.052917 l 1.3652501,-3.937 h -0.60325 v -1.00542 h 2.6035001 v 1.00542 H 5.894916 l 1.3652501,3.98991 h 0.052917 l 1.0795,-3.98991 H 7.5459161 v -1.00542 H 10.12825 Z" />
      <path
         id="path34754"
         style="font-style:normal;font-variant:normal;font-weight:600;font-stretch:normal;font-family:'Zilla Slab';-inkscape-font-specification:'Zilla Slab Semi-Bold';fill:#ffffff;stroke-width:0.28222224px"
         d="m 14.415657,284.51917 q -0.0635,0.62442 -0.613833,1.09008 -0.550333,0.46567 -1.513417,0.46567 -1.037166,0 -1.703916,-0.60325 -0.6667505,-0.61383 -0.6667505,-1.79917 0,-1.09008 0.6032505,-1.82033 0.613833,-0.73025 1.703916,-0.73025 0.98425,0 1.55575,0.59267 0.582084,0.58208 0.592667,1.48166 0,0.29634 -0.0635,0.635 h -3.20675 q 0.09525,1.3335 1.27,1.3335 0.550333,0 0.783167,-0.26458 0.243416,-0.26458 0.3175,-0.56092 z m -1.2065,-1.38642 q 0.04233,-0.42333 -0.201083,-0.79375 -0.232833,-0.381 -0.79375,-0.381 -0.508,0 -0.772583,0.33867 -0.264584,0.33867 -0.328084,0.83608 z" />
      <path
         id="path34756"
         style="font-style:normal;font-variant:normal;font-weight:600;font-stretch:normal;font-family:'Zilla Slab';-inkscape-font-specification:'Zilla Slab Semi-Bold';fill:#ffffff;stroke-width:0.28222224px"
         d="m 20.167865,283.482 q 0,1.00542 -0.529167,1.79917 -0.529166,0.79375 -1.629833,0.79375 -1.121833,0 -1.576917,-0.84667 -0.02117,0.127 -0.05292,0.37042 -0.03175,0.24342 -0.05292,0.37042 h -1.121833 q 0.0635,-0.34925 0.116416,-0.70909 0.05292,-0.37041 0.05292,-0.71966 v -4.98475 h -0.709083 v -0.86784 h 1.830916 v 3.47134 q 0.211667,-0.42334 0.592667,-0.73025 0.391583,-0.30692 1.04775,-0.30692 0.899583,0 1.4605,0.62442 0.5715,0.61383 0.5715,1.73566 z m -1.17475,0.0952 q 0,-0.75141 -0.338667,-1.143 -0.338666,-0.40216 -0.867833,-0.40216 -0.60325,0 -0.941917,0.4445 -0.338666,0.4445 -0.34925,0.96308 v 0.33867 q 0,0.58208 0.338667,0.99483 0.34925,0.40217 0.910167,0.40217 0.592666,0 0.92075,-0.43392 0.328083,-0.43392 0.328083,-1.16417 z" />
      <path
         id="path34758"
         style="font-style:normal;font-variant:normal;font-weight:600;font-stretch:normal;font-family:'Zilla Slab';-inkscape-font-specification:'Zilla Slab Semi-Bold';fill:#ffffff;stroke-width:0.28222224px"
         d="m 26.528448,281.33359 -1.016,0.0847 -0.211667,-1.32291 h -1.344083 v 4.86833 h 1.153583 v 1.00542 h -3.439583 v -1.00542 h 1.11125 v -4.86833 h -1.354667 l -0.211667,1.32291 -1.005416,-0.0847 0.211666,-2.24367 h 5.894917 z" />
      <path
         id="path34760"
         style="font-style:normal;font-variant:normal;font-weight:600;font-stretch:normal;font-family:'Zilla Slab';-inkscape-font-specification:'Zilla Slab Semi-Bold';fill:#ffffff;stroke-width:0.28222224px"
         d="m 32.69506,285.96909 h -2.550583 v -0.86784 h 0.709083 v -1.86266 q 0,-0.67734 -0.254,-0.9525 -0.254,-0.28575 -0.687916,-0.28575 -0.518584,0 -0.8255,0.33866 -0.306917,0.33867 -0.328084,0.8255 v 1.93675 h 0.6985 v 0.86784 h -2.54 v -0.86784 h 0.709084 v -5.54566 H 26.91656 v -0.86784 h 1.8415 v 3.31259 q 0.486834,-0.87842 1.576917,-0.87842 0.687917,0 1.164167,0.41275 0.486833,0.41275 0.486833,1.29117 v 2.27541 h 0.709083 z" />
      <path
         id="path34762"
         style="font-style:normal;font-variant:normal;font-weight:600;font-stretch:normal;font-family:'Zilla Slab';-inkscape-font-specification:'Zilla Slab Semi-Bold';fill:#ffffff;stroke-width:0.28222224px"
         d="m 33.798537,280.23292 v -1.24883 h 1.153583 v 1.24883 z m 1.894417,5.73617 h -2.540001 v -0.86784 h 0.709084 v -3.00566 H 33.11062 v -0.87842 h 1.87325 v 3.88408 h 0.709084 z" />
      <path
         id="path34764"
         style="font-style:normal;font-variant:normal;font-weight:600;font-stretch:normal;font-family:'Zilla Slab';-inkscape-font-specification:'Zilla Slab Semi-Bold';fill:#ffffff;stroke-width:0.28222224px"
         d="m 41.989706,285.96909 h -2.54 v -0.86784 h 0.6985 v -1.86266 q 0,-0.67734 -0.243416,-0.9525 -0.243417,-0.28575 -0.677334,-0.28575 -0.53975,0 -0.85725,0.34925 -0.306917,0.34925 -0.3175,0.85725 v 1.89441 h 0.709083 v 0.86784 h -2.550583 v -0.86784 h 0.709083 v -3.00566 h -0.740833 v -0.87842 h 1.87325 v 0.77258 q 0.497417,-0.86783 1.576917,-0.86783 0.677333,0 1.164167,0.41275 0.486833,0.41275 0.486833,1.29117 v 2.27541 h 0.709083 z" />
      <path
         id="path34766"
         style="font-style:normal;font-variant:normal;font-weight:600;font-stretch:normal;font-family:'Zilla Slab';-inkscape-font-specification:'Zilla Slab Semi-Bold';fill:#ffffff;stroke-width:0.28222224px"
         d="m 47.883962,282.09559 h -0.687917 v 3.69358 q 0,1.13242 -0.635,1.83092 -0.624417,0.6985 -1.87325,0.6985 -0.740834,0 -1.386417,-0.3175 -0.645583,-0.3175 -0.910167,-1.09009 l 0.878417,-0.47625 q 0.4445,0.97367 1.439333,0.97367 0.592667,0 0.973667,-0.42333 0.381,-0.42334 0.381,-1.2065 v -0.70909 q -0.201083,0.381 -0.582083,0.65617 -0.370417,0.26458 -1.026584,0.26458 -0.836083,0 -1.449916,-0.58208 -0.60325,-0.59267 -0.60325,-1.7145 0,-1.016 0.53975,-1.78858 0.550333,-0.78317 1.5875,-0.78317 1.0795,0 1.534583,0.83608 v -0.74083 h 1.820334 z m -1.820334,1.60866 v -0.381 q 0,-0.59266 -0.338667,-0.94191 -0.338666,-0.34925 -0.846666,-0.34925 -0.592667,0 -0.910167,0.43391 -0.3175,0.42334 -0.3175,1.15359 0,0.75141 0.3175,1.11125 0.3175,0.34925 0.804333,0.34925 0.60325,0 0.941917,-0.42334 0.34925,-0.42333 0.34925,-0.9525 z" />
      <path
         id="path34768"
         style="font-style:normal;font-variant:normal;font-weight:600;font-stretch:normal;font-family:'Zilla Slab';-inkscape-font-specification:'Zilla Slab Semi-Bold';fill:#ffffff;stroke-width:0.28222224px"
         d="m 52.493502,284.55092 q 0,0.74083 -0.613834,1.13242 -0.60325,0.39158 -1.545166,0.39158 -0.508,0 -1.026584,-0.11642 -0.508,-0.11641 -0.92075,-0.34925 l 0.169334,-1.22766 0.889,0.0847 -0.01058,0.61384 q 0.201084,0.0847 0.423334,0.11641 0.232833,0.0317 0.41275,0.0317 0.433916,0 0.751416,-0.14816 0.328084,-0.15875 0.328084,-0.46567 0,-0.29633 -0.296334,-0.42333 -0.28575,-0.127 -0.719666,-0.1905 -0.433917,-0.0741 -0.867834,-0.1905 -0.433916,-0.127 -0.73025,-0.40217 -0.28575,-0.28575 -0.28575,-0.84667 0,-0.8255 0.624417,-1.13241 0.635,-0.30692 1.3335,-0.30692 0.92075,0 1.735667,0.43392 l 0.116416,1.17475 -0.889,0.10583 -0.09525,-0.70908 q -0.41275,-0.15875 -0.836083,-0.15875 -0.328083,0 -0.560917,0.13758 -0.22225,0.127 -0.22225,0.41275 0,0.29633 0.28575,0.41275 0.28575,0.11642 0.709084,0.1905 0.423333,0.0635 0.846666,0.1905 0.423334,0.11642 0.709084,0.40217 0.28575,0.27516 0.28575,0.83608 z" />
      <path
         id="path34770"
         style="font-weight:normal;font-size:10.58333397px;fill:#ffffff;stroke-width:0.28222224px"
         d="m 60.872689,281.069 -0.6985,0.0741 -0.211666,-1.37584 h -2.667001 v 2.67759 h 3.164417 v 0.67733 h -3.164417 v 2.16958 h 1.217084 v 0.67734 h -2.8575 v -0.67734 h 0.867833 v -5.5245 h -0.867833 v -0.67733 h 4.995333 z" />
      <path
         id="path34772"
         style="font-weight:normal;font-size:10.58333397px;fill:#ffffff;stroke-width:0.28222224px"
         d="m 64.128058,281.17484 q 0.508,0 0.804333,0.24341 l 0.179917,1.18534 -0.60325,0.0741 -0.179917,-0.80433 q -0.179917,-0.0635 -0.359833,-0.0635 -0.41275,0 -0.687917,0.34925 -0.275167,0.33866 -0.275167,0.889 v 2.31775 h 1.090084 v 0.60325 h -2.656417 v -0.60325 h 0.8255 v -3.50309 h -0.846667 v -0.60325 h 1.545167 v 0.84667 q 0.137583,-0.39158 0.4445,-0.65617 0.3175,-0.27516 0.719667,-0.27516 z" />
      <path
         id="path34774"
         style="font-weight:normal;font-size:10.58333397px;fill:#ffffff;stroke-width:0.28222224px"
         d="m 66.423813,281.61934 q 0.370416,-0.24342 0.783166,-0.34925 0.412751,-0.10584 0.878417,-0.10584 1.68275,0 1.68275,1.57692 v 2.24367 q 0,0.508 0.402167,0.508 0.179917,0 0.3175,-0.0635 l 0.01058,0.48683 q -0.28575,0.15875 -0.613833,0.15875 -0.836083,0 -0.85725,-0.9525 v -0.0212 q -0.22225,0.381 -0.635,0.67734 -0.402167,0.29633 -0.973667,0.29633 -0.465667,0 -0.9525,-0.28575 -0.47625,-0.28575 -0.47625,-1.03717 0,-0.889 0.6985,-1.16416 0.709084,-0.28575 1.502834,-0.28575 0.211666,0 0.423333,0.0106 0.22225,0.0106 0.41275,0.0317 v -0.42333 q 0,-0.508 -0.22225,-0.8255 -0.211667,-0.3175 -0.846667,-0.3175 -0.518583,0 -0.910167,0.1905 l -0.179916,0.81491 -0.613834,-0.0741 z m 2.6035,2.58233 v -0.35983 q -0.201083,-0.0106 -0.423333,-0.0317 -0.22225,-0.0212 -0.455084,-0.0212 -0.529166,0 -0.963083,0.16933 -0.423334,0.15875 -0.423334,0.70909 0,0.45508 0.28575,0.62441 0.28575,0.16934 0.592667,0.16934 0.486834,0 0.910167,-0.33867 0.433917,-0.33867 0.47625,-0.92075 z" />
      <path
         id="path34776"
         style="font-weight:normal;font-size:10.58333397px;fill:#ffffff;stroke-width:0.28222224px"
         d="m 79.710367,285.96909 h -2.254251 v -0.60325 h 0.687917 v -2.19075 q 0,-0.762 -0.306917,-1.06892 -0.296333,-0.3175 -0.762,-0.3175 -0.645583,0 -0.994833,0.48683 -0.34925,0.48684 -0.359833,0.93134 v 2.159 h 0.814916 v 0.60325 H 74.2917 v -0.60325 h 0.677333 v -2.19075 q 0,-0.77259 -0.296333,-1.0795 -0.296334,-0.30692 -0.751417,-0.30692 -0.656167,0 -1.005417,0.47625 -0.338667,0.46567 -0.359833,0.92075 v 2.18017 h 0.867833 v 0.60325 h -2.434167 v -0.60325 h 0.8255 v -3.50309 h -0.836083 v -0.60325 h 1.576917 v 0.87842 q 0.232833,-0.42333 0.624416,-0.6985 0.391584,-0.27517 0.952501,-0.27517 0.550333,0 0.9525,0.27517 0.41275,0.27517 0.560916,0.85725 0.211667,-0.49742 0.624417,-0.81492 0.423333,-0.3175 1.037167,-0.3175 0.677333,0 1.121833,0.42334 0.455083,0.42333 0.455083,1.36525 v 2.413 h 0.825501 z" />
      <path
         id="path34778"
         style="font-weight:normal;font-size:10.58333397px;fill:#ffffff;stroke-width:0.28222224px"
         d="m 84.41234,284.61442 q -0.09525,0.60325 -0.60325,1.03717 -0.508,0.42333 -1.375833,0.42333 -0.994834,0 -1.608667,-0.62442 -0.613833,-0.62441 -0.613833,-1.76741 0,-1.10067 0.582083,-1.80975 0.582083,-0.70909 1.576917,-0.70909 0.973667,0 1.481667,0.61384 0.508,0.61383 0.518583,1.44991 0,0.27517 -0.0635,0.56092 h -3.312584 q 0.0635,1.651 1.492251,1.651 0.560916,0 0.878416,-0.26458 0.3175,-0.26459 0.423334,-0.6985 z m -0.8255,-1.37583 q 0.05292,-0.52917 -0.254,-0.99484 -0.296333,-0.46566 -0.98425,-0.46566 -0.656167,0 -0.963083,0.43391 -0.306917,0.43392 -0.381,1.02659 z" />
      <path
         id="path34780"
         style="font-weight:normal;font-size:10.58333397px;fill:#ffffff;stroke-width:0.28222224px"
         d="m 92.687848,281.86275 h -0.53975 l -1.386417,4.10634 h -0.5715 l -1.439333,-3.59834 h -0.05292 l -1.407583,3.59834 h -0.550333 l -1.439334,-4.10634 h -0.518583 v -0.60325 h 2.2225 v 0.60325 h -0.899583 l 0.98425,2.97392 h 0.05292 l 1.397,-3.57717 h 0.497417 l 1.471083,3.57717 h 0.05292 l 0.867833,-2.97392 h -0.85725 v -0.60325 h 2.116667 z" />
      <path
         id="path34782"
         style="font-weight:normal;font-size:10.58333397px;fill:#ffffff;stroke-width:0.28222224px"
         d="m 97.703351,283.609 q 0,1.06892 -0.635,1.76742 -0.635,0.6985 -1.725084,0.6985 -1.068916,0 -1.68275,-0.67733 -0.60325,-0.67734 -0.60325,-1.74625 0,-1.02659 0.592667,-1.75684 0.592667,-0.74083 1.735667,-0.74083 1.153583,0 1.735666,0.73025 0.582084,0.71967 0.582084,1.72508 z m -0.783167,-0.0106 q 0,-0.80433 -0.41275,-1.30175 -0.402167,-0.508 -1.143,-0.508 -0.740833,0 -1.143,0.51858 -0.391583,0.51859 -0.391583,1.30175 0,0.77259 0.391583,1.30175 0.391583,0.52917 1.143,0.52917 0.751417,0 1.153583,-0.51858 0.402167,-0.52917 0.402167,-1.32292 z" />
      <path
         id="path34784"
         style="font-weight:normal;font-size:10.58333397px;fill:#ffffff;stroke-width:0.28222224px"
         d="m 101.10771,281.17484 q 0.508,0 0.80434,0.24341 l 0.17991,1.18534 -0.60325,0.0741 -0.17991,-0.80433 q -0.17992,-0.0635 -0.35984,-0.0635 -0.41275,0 -0.68791,0.34925 -0.27517,0.33866 -0.27517,0.889 v 2.31775 h 1.09008 v 0.60325 h -2.656413 v -0.60325 h 0.8255 v -3.50309 H 98.39838 v -0.60325 h 1.545167 v 0.84667 q 0.137583,-0.39158 0.444503,-0.65617 0.3175,-0.27516 0.71966,-0.27516 z" />
      <path
         id="path34786"
         style="font-weight:normal;font-size:10.58333397px;fill:#ffffff;stroke-width:0.28222224px"
         d="m 107.87113,285.96909 h -2.2225 v -0.60325 h 0.70908 l -1.29117,-1.59809 h -0.83608 v 1.59809 h 0.67733 v 0.60325 h -2.24366 v -0.60325 h 0.81491 V 279.291 h -0.83608 v -0.60325 h 1.5875 v 4.5085 h 0.84667 l 1.0795,-1.3335 h -0.73025 v -0.60325 h 2.20133 v 0.60325 h -0.71967 l -1.25941,1.55575 1.55575,1.94734 h 0.66675 z" />
    </g>
    <g
       id="g100262-4-0-1"
       transform="matrix(0.06633719,0,0,0.06633719,-15.866652,273.81513)">
      <rect
         id="rect100264-9-94-8"
         height="103.7"
         width="362.79999"
         y="245.8"
         x="239.5" />
      <path
         id="path100266-0-5-6"
         d="m 586.1,320.2 c -0.7,0.2 -1.3,0.3 -1.9,0.3 -2.1,0 -3.1,-0.9 -3.1,-3.5 v -19.7 c 0,-10.4 -8.3,-15.4 -18,-15.4 -7.4,0 -11.5,0.9 -19.4,4.1 l -1.8,10.4 10.4,1.1 1.5,-5.1 c 2.1,-1.1 4.2,-1.3 6.9,-1.3 7.3,0 7.4,5.5 7.4,10.2 v 1.5 c -2.3,-0.3 -4.9,-0.4 -7.4,-0.4 -10.4,0 -21.1,2.6 -21.1,13.8 0,9.5 7.4,13 14,13 7.3,0 12,-4.4 14.6,-9.1 0.6,5.5 3.9,9.1 10,9.1 2.8,0 5.7,-0.8 8.2,-2.1 z m -27.9,-0.3 c -3.9,0 -5.3,-2.3 -5.3,-5.2 0,-4.9 4,-6.2 8.7,-6.2 2.1,0 4.4,0.3 6.5,0.6 -0.4,7.5 -5.3,10.8 -9.9,10.8 z M 540.8,259 521.2,328.2 H 508.4 L 528,259 Z m -26.4,0 -19.6,69.2 H 482 L 501.6,259 Z m -54.5,23.8 h 13.6 v 16.3 h -13.6 z m 0,29.1 h 13.6 v 16.3 h -13.6 z m -19.8,-0.6 10.3,1 -2.8,15.9 h -39.7 l -1.3,-6.8 25,-28.7 h -14.2 l -2,7 -9.4,-1 1.6,-15.9 h 39.9 l 1,6.8 -25.2,28.7 H 438 Z m -65,-29.4 c -16.3,0 -24.4,11 -24.4,24.3 0,14.5 9.7,23 23.7,23 14.5,0 25,-9.2 25,-23.7 -0.1,-12.6 -8,-23.6 -24.3,-23.6 z m -0.3,37.3 c -7,0 -10.7,-6 -10.7,-13.9 0,-8.6 4.1,-13.5 10.8,-13.5 6.1,0 11.1,4.1 11.1,13.3 -0.1,8.7 -4.5,14.1 -11.2,14.1 z M 339,318.3 h 6 v 9.9 h -19 v -25.6 c 0,-7.9 -2.6,-10.9 -7.7,-10.9 -6.2,0 -8.8,4.4 -8.8,10.8 v 15.8 h 6 v 9.9 h -19 v -25.6 c 0,-7.9 -2.6,-10.9 -7.8,-10.9 -6.2,0 -8.8,4.4 -8.8,10.8 v 15.8 h 8.7 v 9.9 H 261 v -9.9 h 6 v -25.7 h -6 v -9.9 h 19 v 6.8 c 2.7,-4.8 7.4,-7.7 13.8,-7.7 6.5,0 12.6,3.1 14.8,9.8 2.5,-6 7.6,-9.8 14.8,-9.8 8.2,0 15.6,4.9 15.6,15.7 z"
         class="st0"
         style="fill:#ffffff" />
    </g>
  </g>
</svg>
